<?xml version="1.0" encoding="UTF-8" standalone="no"?>
<!-- Created with Inkscape (http://www.inkscape.org/) -->

<svg
   version="1.1"
   id="svg214"
   width="241"
   height="134"
   viewBox="0 0 241 134"
   xmlns="http://www.w3.org/2000/svg"
   xmlns:svg="http://www.w3.org/2000/svg">
  <defs
     id="defs218" />
  <g
     id="g220">
    <path
       style="display:inline;fill:#000000"
       d="m 115.078,124.79419 c -3.71052,-0.37827 -6.86052,-0.87688 -7,-1.10803 -0.13947,-0.23114 -0.11021,-4.80776 0.065,-10.17026 l 0.31862,-9.75 h 3.93138 c 5.06856,0 5.08764,-1.55949 0.029,-2.36841 -3.43686,-0.54957 -4.26261,-1.26227 -6.9218,-5.974091 -5.13472,-9.098251 -12.431654,-9.884753 -16.959792,-1.828019 -3.397722,6.045432 -3.807656,15.75307 -1.105128,26.17052 0.231726,0.89323 -0.217632,1.41428 -1.110865,1.2881 -0.825,-0.11655 -5.775,-0.6667 -11,-1.22255 -5.225,-0.55586 -13.775,-1.51986 -19,-2.14221 -5.225,-0.62236 -12.425,-1.42221 -16,-1.77745 l -6.5,-0.64589 -0.515565,-9.5 C 32.612117,92.927631 29.289381,87.372691 23.420912,89.235271 c -2.149346,0.682176 -5.060732,6.137666 -5.166782,9.681761 -0.06597,2.204578 -0.123078,2.226008 -0.929715,0.34887 -1.599885,-3.723138 -1.031328,-9.886598 1.290109,-13.985463 2.085996,-3.683157 2.74845,-4.084775 8.73355,-5.294795 9.087629,-1.837264 15.858822,-3.568305 27.976341,-7.152094 17.008859,-5.030416 25.840794,-6.059609 51.999995,-6.059609 25.81889,0 36.66344,1.214668 49.5921,5.554675 7.48439,2.512428 18.96107,7.337549 22.9079,9.631131 1.1,0.639232 6.55498,1.491727 12.12218,1.894433 13.17458,0.952988 19.18022,3.668725 26.84602,12.139709 5.76156,6.366731 6.38478,8.311061 4.6277,14.437611 -0.74741,2.60607 -0.48744,3.76555 1.5,6.69035 1.32226,1.94587 2.4041,3.76947 2.4041,4.05245 0,1.13182 -8.12902,2.6034 -13.64408,2.46996 -3.22075,-0.0779 -19.35592,0.3447 -35.85592,0.93916 -33.08721,1.19207 -52.48161,1.25721 -62.74641,0.21077 z m 87.74641,-4.46491 c 5.24828,-0.79639 9.66575,-1.00949 10.59707,-0.5112 0.93153,0.49841 3.09977,0.3933 5.20309,-0.25223 3.01365,-0.92491 3.45078,-1.3968 2.66099,-2.87254 -0.51977,-0.9712 -0.66448,-3.81274 -0.32157,-6.31453 0.62347,-4.54871 0.62347,-4.54871 -2.57563,-3.63122 -1.75951,0.50462 -8.79039,1.84989 -15.62419,2.98949 -10.94956,1.82595 -13.99945,1.95702 -25.68243,1.10375 -7.29153,-0.53255 -18.81376,-1.25936 -25.60496,-1.61514 -12.34762,-0.64688 -12.34762,-0.64688 -15.25,2.13377 -3.49871,3.35198 -3.59069,4.4112 -0.625,7.19732 2.00302,1.88174 3.65951,2.17816 13.75,2.46056 28.89102,0.80856 44.97372,0.60162 53.47263,-0.68803 z m -22.08984,-2.4641 c 1.126,-1.24423 1.35223,-2.1281 0.65498,-2.55902 -1.55167,-0.95899 -1.30288,-2.54026 0.39968,-2.54026 0.80565,0 1.96187,0.92877 2.56939,2.06392 1.35386,2.52971 -0.26059,4.93608 -3.31164,4.93608 -1.93382,0 -1.94899,-0.0923 -0.31241,-1.90072 z m 4.58984,0.95974 c 0,-0.51754 0.45122,-1.21985 1.0027,-1.56069 0.66681,-0.41211 0.65502,-1.26937 -0.0352,-2.55902 -0.84783,-1.58422 -0.70927,-1.93931 0.75677,-1.93931 2.67507,0 4.35197,3.17525 2.79872,5.29945 -1.31993,1.8051 -4.52299,2.34301 -4.52299,0.75957 z M 83.774415,116.90603 c -0.5225,-0.47293 -6.430484,-3.01403 -13.128854,-5.6469 l -12.178854,-4.78704 -5.321146,-8.964928 c -2.92663,-4.93071 -5.884652,-9.188134 -6.573382,-9.460942 -0.68873,-0.272809 -2.401797,-0.207494 -3.806815,0.145143 -3.193401,0.801492 -2.842438,2.251485 3.038099,12.551797 4.808215,8.42205 3.218505,7.58365 26.520952,13.98689 11.721414,3.2209 12.839124,3.43331 11.45,2.17598 z m 67.049995,-16.73886 c -7.70062,-3.226799 -26.95653,-8.652583 -29.18477,-8.223462 -1.13893,0.219337 0.53927,1.795527 5.0199,4.714774 6.86064,4.469878 11.40573,5.479208 26.66487,5.921448 3.2672,0.0947 3.10091,-0.0658 -2.5,-2.41276 z m 64.26478,-0.14927 c 1.24563,-0.269938 2.48613,-0.848968 2.75668,-1.286728 0.51525,-0.833685 -4.20926,-6.965274 -5.36688,-6.965274 -0.68986,0 -3.15458,7.103114 -3.15458,9.091242 0,0.68283 0.68568,0.83452 1.75,0.38715 0.9625,-0.40457 2.76915,-0.95645 4.01478,-1.22639 z M 94.146376,83.653125 l 3.321961,-1.388472 -3.133963,-4.32631 c -3.732907,-5.153128 -8.068534,-7.185104 -15.22784,-7.136823 -7.548799,0.05091 -25.782119,5.032137 -25.782119,7.043514 0,1.312835 12.0553,6.005307 17.687893,6.884934 7.631592,1.191805 18.968861,0.664078 23.134068,-1.076843 z m 76.928034,1.458562 c 4.5375,-0.353223 8.24888,-0.913026 8.2475,-1.244006 -0.003,-0.689228 -15.12055,-7.200864 -25.4975,-10.982524 -6.65057,-2.423661 -8.20923,-2.568389 -31.22413,-2.8993 -13.32327,-0.191563 -24.859337,0.01808 -25.635713,0.465872 -1.088852,0.62802 -0.106667,2.250396 4.295843,7.095877 l 5.70743,6.281708 17.92828,0.817406 c 24.27,1.106544 36.37134,1.228392 46.17829,0.464967 z M 92.660567,121.5159 c -4.132769,-4.62054 -5.798096,-12.20785 -4.282199,-19.50989 3.501318,-16.865761 17.401352,-11.37982 17.144062,6.76626 -0.11603,8.18293 -4.067,14.99363 -8.698015,14.99363 -1.183255,0 -3.056986,-1.0125 -4.163848,-2.25 z m -69.738297,-8.295 c -2.167436,-2.16744 -3.89406,-9.24228 -3.239696,-13.274648 1.860664,-11.465929 10.453471,-10.496992 11.430854,1.288958 0.523148,6.30849 -0.157762,9.75658 -2.361943,11.96076 -1.985678,1.98568 -3.860446,1.9937 -5.829215,0.0249 z M 183.82441,62.799826 c -5.87013,-1.260346 -15.5,-5.037133 -15.5,-6.079026 0,-1.859664 4.44061,-9.954022 5.44927,-9.93294 0.5779,0.01208 2.89769,0.860734 5.15508,1.885901 12.29603,5.584078 32.36809,5.284533 33.19391,-0.495368 0.51235,-3.585975 -2.24092,-4.564203 -16.71506,-5.938812 -15.3592,-1.458661 -19.87218,-2.964217 -23.2952,-7.771411 -2.56113,-3.596778 -2.94255,-11.176451 -0.76698,-15.241548 3.68755,-6.890249 19.89123,-10.891773 34.83897,-8.603534 8.41207,1.287741 16.77025,3.735514 17.65754,5.171177 0.28593,0.462637 -0.49073,2.921277 -1.72591,5.463644 -1.82715,3.76083 -2.62286,4.513989 -4.2687,4.040433 -9.84043,-2.831378 -14.06748,-3.532444 -21.29876,-3.532444 -9.10099,0 -12.22416,1.021967 -12.22416,4 0,2.891634 2.37858,3.661498 15.10937,4.890383 18.99236,1.833304 24.84238,4.503011 26.94041,12.294487 2.02209,7.509478 -1.29597,14.26999 -8.76932,17.867367 -4.07128,1.959753 -6.63484,2.341136 -17.28046,2.570819 -6.875,0.14833 -14.3,-0.116777 -16.5,-0.589128 z M 40.095555,43.015898 l -0.27114,-19.75 -11.25,-0.282751 -11.25,-0.282751 v -5.467249 -5.467249 h 30 30 v 5.467249 5.467249 l -11.25,0.282751 -11.25,0.282751 -0.27114,19.75 -0.27114,19.75 h -6.95772 -6.95772 z m 44.22886,-5.75 v -25.5 h 25.999995 26 v 5.5 5.5 h -19 -18.999995 v 4.5 4.5 h 17.499995 17.5 v 5.5 5.5 h -17.5 -17.499995 v 4.5 4.5 h 19.499995 19.5 v 5.5 5.5 h -26.5 -26.499995 z m 60.999995,0 v -25.5 h 7.5 7.5 v 25.5 25.5 h -7.5 -7.5 z"
       id="path790" />
  </g>
</svg>
